/* XPM */
static char * close_inactive_xpm[] = {
"15 16 23 1",
" 	c None",
".	c #2E2E2E",
"+	c #525252",
"@	c #3F3F3F",
"#	c #B0B0B0",
"$	c #B1B1B1",
"%	c #B4B4B4",
"&	c #B5B5B5",
"*	c #B7B7B7",
"=	c #B3B3B3",
"-	c #B9B9B9",
";	c #BDBDBD",
">	c #BABABA",
",	c #B6B6B6",
"'	c #BEBEBE",
")	c #BBBBBB",
"!	c #C0C0C0",
"~	c #C1C1C1",
"{	c #C2C2C2",
"]	c #C7C7C7",
"^	c #C3C3C3",
"/	c #393939",
"(	c #C6C6C6",
"...............",
"+++++++++++++++",
"@@@@@@@@@@@@@@@",
"@@@@@@@@@@@@@@@",
"@@@@@@@@@@@@@@@",
"@@@@@##@@$$@@@@",
"@@@@@%&%$*=@@@@",
"@@@@@@-;>,@@@@@",
"@@@@@@')';@@@@@",
"@@@@@!!!'~{@@@@",
"@@@@@]^//((@@@@",
"@@@@@@@@@@@@@@@",
"@@@@@@@@@@@@@@@",
"@@@@@@@@@@@@@@@",
"@@@@@@@@@@@@@@@",
"@@@@@@@@@@@@@@@"};
