/* XPM */
static char * hide_active_xpm[] = {
"15 16 11 1",
" 	c None",
".	c #2E2E2E",
"+	c #525252",
"@	c #3F3F3F",
"#	c #B8B8B8",
"$	c #BDBDBD",
"%	c #BBBBBB",
"&	c #B6B6B6",
"*	c #BCBCBC",
"=	c #BEBEBE",
"-	c #BABABA",
"...............",
"+++++++++++++++",
"@@@@@@@@@@@@@@@",
"@@@@@@@@@@@@@@@",
"@@@@@@@@@@@@@@@",
"@@@@@@@@@@@@@@@",
"@@@@@@@@@@@@@@@",
"@@@@@#$%%%&@@@@",
"@@@@@*=*-**@@@@",
"@@@@@@@@@@@@@@@",
"@@@@@@@@@@@@@@@",
"@@@@@@@@@@@@@@@",
"@@@@@@@@@@@@@@@",
"@@@@@@@@@@@@@@@",
"@@@@@@@@@@@@@@@",
"@@@@@@@@@@@@@@@"};
