/* XPM */
static char * maximize_active_xpm[] = {
"15 16 18 1",
" 	c None",
".	c #2E2E2E",
"+	c #525252",
"@	c #3F3F3F",
"#	c #B2B2B2",
"$	c #9C9C9C",
"%	c #B4B4B4",
"&	c #B8B8B8",
"*	c #BABABA",
"=	c #B9B9B9",
"-	c #BDBDBD",
";	c #BCBCBC",
">	c #BBBBBB",
",	c #BFBFBF",
"'	c #C2C2C2",
")	c #C1C1C1",
"!	c #C4C4C4",
"~	c #C7C7C7",
"...............",
"+++++++++++++++",
"@@@@@@@@@@@@@@@",
"@@@@@@@@@@@@@@@",
"@@@@@@@@@@@@@@@",
"@@@@@@@#$@@@@@@",
"@@@@@@@%#@@@@@@",
"@@@@@&***=&@@@@",
"@@@@@-;>,&'@@@@",
"@@@@@@@))@@@@@@",
"@@@@@@@!~@@@@@@",
"@@@@@@@@@@@@@@@",
"@@@@@@@@@@@@@@@",
"@@@@@@@@@@@@@@@",
"@@@@@@@@@@@@@@@",
"@@@@@@@@@@@@@@@"};
