/* XPM */
static char * maximize_pressed_xpm[] = {
"15 16 5 1",
" 	c None",
".	c #2E2E2E",
"+	c #525252",
"@	c #3F3F3F",
"#	c #E0E0E0",
"...............",
"+++++++++++++++",
"@@@@@@@@@@@@@@@",
"@@@@@@@@@@@@@@@",
"@@@@@@@@@@@@@@@",
"@@@@@@@##@@@@@@",
"@@@@@@@##@@@@@@",
"@@@@@######@@@@",
"@@@@@######@@@@",
"@@@@@@@##@@@@@@",
"@@@@@@@##@@@@@@",
"@@@@@@@@@@@@@@@",
"@@@@@@@@@@@@@@@",
"@@@@@@@@@@@@@@@",
"@@@@@@@@@@@@@@@",
"@@@@@@@@@@@@@@@"};
