/* XPM */
static char * title_3_inactive_xpm[] = {
"5 16 4 1",
" 	c None",
".	c #2E2E2E",
"+	c #525252",
"@	c #3F3F3F",
".....",
"+++++",
"@@@@@",
"@@@@@",
"@@@@@",
"@@@@@",
"@@@@@",
"@@@@@",
"@@@@@",
"@@@@@",
"@@@@@",
"@@@@@",
"@@@@@",
"@@@@@",
"@@@@@",
"@@@@@"};
