/* XPM */
static char * top_left_active_xpm[] = {
"5 16 4 1",
" 	c None",
".	c #2E2E2E",
"+	c #3F3F3F",
"@	c #525252",
" ....",
".+@@@",
".@+++",
".++++",
".++++",
".++++",
".++++",
".++++",
".++++",
".++++",
".++++",
".++++",
".++++",
".++++",
".++++",
".++++"};
