/* XPM */
static char * close_inactive_xpm[] = {
"33 24 498 2",
"  	c #A3A29F",
". 	c #A47767",
"+ 	c #9D7C61",
"@ 	c #9A755F",
"# 	c #9C7560",
"$ 	c #9B745E",
"% 	c #9B745C",
"& 	c #9C745C",
"* 	c #9B7059",
"= 	c #9C7057",
"- 	c #996C54",
"; 	c #9B6C54",
"> 	c #996752",
", 	c #996652",
"' 	c #976650",
") 	c #986652",
"! 	c #986552",
"~ 	c #966451",
"{ 	c #93624E",
"] 	c #915F4D",
"^ 	c #87614A",
"/ 	c #855F49",
"( 	c #855E48",
"_ 	c #865F4B",
": 	c #855F4C",
"< 	c #845C4B",
"[ 	c #83584A",
"} 	c #85574B",
"| 	c #8C5747",
"1 	c #8C5D50",
"2 	c #331911",
"3 	c #222D28",
"4 	c #9A9EA1",
"5 	c #878D84",
"6 	c #8B5F4A",
"7 	c #866743",
"8 	c #876744",
"9 	c #8B5D3B",
"0 	c #895B38",
"a 	c #885836",
"b 	c #845532",
"c 	c #82512E",
"d 	c #814E29",
"e 	c #7E4B26",
"f 	c #7C4824",
"g 	c #814321",
"h 	c #7F411F",
"i 	c #7D3F1D",
"j 	c #7B3D1B",
"k 	c #783919",
"l 	c #753616",
"m 	c #713312",
"n 	c #6F3110",
"o 	c #6D2D10",
"p 	c #69290E",
"q 	c #64260C",
"r 	c #62250B",
"s 	c #60230C",
"t 	c #5D1E0A",
"u 	c #591805",
"v 	c #571402",
"w 	c #581607",
"x 	c #53150C",
"y 	c #290D04",
"z 	c #393737",
"A 	c #98969B",
"B 	c #8D806A",
"C 	c #861B12",
"D 	c #731C08",
"E 	c #741609",
"F 	c #79160A",
"G 	c #78150A",
"H 	c #7A150A",
"I 	c #7B160B",
"J 	c #6F1405",
"K 	c #6D1505",
"L 	c #6E1607",
"M 	c #6F1708",
"N 	c #6E1808",
"O 	c #6E180A",
"P 	c #6D1709",
"Q 	c #65160A",
"R 	c #5F1207",
"S 	c #590F05",
"T 	c #591007",
"U 	c #5A130B",
"V 	c #5C130D",
"W 	c #5D120D",
"X 	c #5D120B",
"Y 	c #5D1405",
"Z 	c #541009",
"` 	c #1D0504",
" .	c #4A4A4A",
"..	c #929093",
"+.	c #8D7654",
"@.	c #841E0C",
"#.	c #871C0A",
"$.	c #7B1604",
"%.	c #7E1C07",
"&.	c #7D1C07",
"*.	c #7C1907",
"=.	c #7B1906",
"-.	c #791907",
";.	c #791707",
">.	c #771606",
",.	c #771505",
"'.	c #751708",
").	c #741507",
"!.	c #711405",
"~.	c #6F1406",
"{.	c #6C1405",
"].	c #6C1407",
"^.	c #6A1406",
"/.	c #681405",
"(.	c #67170A",
"_.	c #621407",
":.	c #5B1207",
"<.	c #571105",
"[.	c #541106",
"}.	c #551005",
"|.	c #581206",
"1.	c #5A1207",
"2.	c #5D170A",
"3.	c #5A140F",
"4.	c #170B0A",
"5.	c #626264",
"6.	c #8B868A",
"7.	c #867749",
"8.	c #8D2A12",
"9.	c #8D230C",
"0.	c #8B230F",
"a.	c #8A1F0B",
"b.	c #891F0A",
"c.	c #861E0A",
"d.	c #861C0A",
"e.	c #841C0B",
"f.	c #821C0C",
"g.	c #811A0C",
"h.	c #7F190B",
"i.	c #75160B",
"j.	c #74140B",
"k.	c #6F1409",
"l.	c #6D1208",
"m.	c #6A1207",
"n.	c #681309",
"o.	c #671409",
"p.	c #651408",
"q.	c #641207",
"r.	c #621207",
"s.	c #5C1207",
"t.	c #571207",
"u.	c #521005",
"v.	c #510F02",
"w.	c #541104",
"x.	c #591407",
"y.	c #561306",
"z.	c #57140F",
"A.	c #140E0A",
"B.	c #787C7F",
"C.	c #6A686B",
"D.	c #8D712D",
"E.	c #8A3D0C",
"F.	c #8D3409",
"G.	c #8D310A",
"H.	c #8B300C",
"I.	c #892C08",
"J.	c #8B2807",
"K.	c #8A2404",
"L.	c #862102",
"M.	c #842004",
"N.	c #832105",
"O.	c #801F06",
"P.	c #761805",
"Q.	c #711804",
"R.	c #6E1704",
"S.	c #6A1705",
"T.	c #681506",
"U.	c #651407",
"V.	c #661207",
"W.	c #611707",
"X.	c #571200",
"Y.	c #551200",
"Z.	c #591202",
"`.	c #561004",
" +	c #521205",
".+	c #600F00",
"++	c #3F0901",
"@+	c #1B1A15",
"#+	c #767B7F",
"$+	c #4C4C4C",
"%+	c #8D5B13",
"&+	c #8B2900",
"*+	c #8A2000",
"=+	c #891C00",
"-+	c #8B0C00",
";+	c #8A0700",
">+	c #8B0300",
",+	c #8D0000",
"'+	c #8B0000",
")+	c #8A0000",
"!+	c #870000",
"~+	c #830000",
"{+	c #790000",
"]+	c #760000",
"^+	c #710000",
"/+	c #6A0000",
"(+	c #630000",
"_+	c #5C0000",
":+	c #580000",
"<+	c #550000",
"[+	c #480000",
"}+	c #4D0000",
"|+	c #420000",
"1+	c #3B0000",
"2+	c #400000",
"3+	c #3E0000",
"4+	c #380000",
"5+	c #390000",
"6+	c #130401",
"7+	c #514547",
"8+	c #65646C",
"9+	c #3C3C3C",
"0+	c #8B5D0E",
"a+	c #8A3100",
"b+	c #892A00",
"c+	c #852600",
"d+	c #8D1C00",
"e+	c #8D1400",
"f+	c #8D0F00",
"g+	c #8D0A00",
"h+	c #8D0500",
"i+	c #8C0000",
"j+	c #800000",
"k+	c #7F0000",
"l+	c #7C0000",
"m+	c #750000",
"n+	c #5E0000",
"o+	c #4F0000",
"p+	c #4A0000",
"q+	c #3F0000",
"r+	c #370000",
"s+	c #240000",
"t+	c #0D0500",
"u+	c #676B6A",
"v+	c #3A3A3A",
"w+	c #89570C",
"x+	c #8B3500",
"y+	c #8B3300",
"z+	c #873100",
"A+	c #8D2D00",
"B+	c #8B2600",
"C+	c #8B1E00",
"D+	c #8B1400",
"E+	c #8A0A00",
"F+	c #890200",
"G+	c #880000",
"H+	c #850000",
"I+	c #7D0000",
"J+	c #810000",
"K+	c #620000",
"L+	c #4C0000",
"M+	c #490000",
"N+	c #470000",
"O+	c #3D0000",
"P+	c #360000",
"Q+	c #080201",
"R+	c #383A37",
"S+	c #635866",
"T+	c #393939",
"U+	c #89500A",
"V+	c #8D3600",
"W+	c #8D3800",
"X+	c #8B3800",
"Y+	c #8D3300",
"Z+	c #8D2E00",
"`+	c #8D2600",
" @	c #8D1B00",
".@	c #8C0E00",
"+@	c #8B0200",
"@@	c #890000",
"#@	c #7E0000",
"$@	c #770000",
"%@	c #6B0000",
"&@	c #5D0000",
"*@	c #560000",
"=@	c #570000",
"-@	c #540000",
";@	c #4E0000",
">@	c #260000",
",@	c #0B0100",
"'@	c #5E6462",
")@	c #373737",
"!@	c #854C03",
"~@	c #8A3C00",
"{@	c #853E00",
"]@	c #863800",
"^@	c #883600",
"/@	c #8B3100",
"(@	c #8D2800",
"_@	c #8B1900",
":@	c #8A0D00",
"<@	c #890400",
"[@	c #840300",
"}@	c #830200",
"|@	c #6C0000",
"1@	c #650000",
"2@	c #5A0000",
"3@	c #430000",
"4@	c #310000",
"5@	c #090200",
"6@	c #32352A",
"7@	c #4A4F52",
"8@	c #333333",
"9@	c #874801",
"0@	c #8B3C00",
"a@	c #863F00",
"b@	c #843900",
"c@	c #863600",
"d@	c #8A3300",
"e@	c #8D2C00",
"f@	c #8D1F00",
"g@	c #8B0A00",
"h@	c #870200",
"i@	c #740000",
"j@	c #6F0000",
"k@	c #510000",
"l@	c #050000",
"m@	c #272420",
"n@	c #4F5855",
"o@	c #313131",
"p@	c #804000",
"q@	c #863300",
"r@	c #853800",
"s@	c #813B00",
"t@	c #853400",
"u@	c #883100",
"v@	c #8C1F00",
"w@	c #8C1400",
"x@	c #8C0A00",
"y@	c #890300",
"z@	c #840000",
"A@	c #7C0100",
"B@	c #6D0000",
"C@	c #5F0000",
"D@	c #520000",
"E@	c #3C0000",
"F@	c #020101",
"G@	c #1C1C1C",
"H@	c #4F4D52",
"I@	c #2F2F2F",
"J@	c #190702",
"K@	c #4C1400",
"L@	c #813200",
"M@	c #873300",
"N@	c #893300",
"O@	c #863200",
"P@	c #892C00",
"Q@	c #8C2100",
"R@	c #8D1A00",
"S@	c #8B1300",
"T@	c #840C00",
"U@	c #820200",
"V@	c #810200",
"W@	c #700000",
"X@	c #660100",
"Y@	c #040100",
"Z@	c #3F3E43",
"`@	c #2D2D2D",
" #	c #38453E",
".#	c #110200",
"+#	c #390E01",
"@#	c #762800",
"##	c #782A00",
"$#	c #7C2B00",
"%#	c #812A00",
"&#	c #832900",
"*#	c #862700",
"=#	c #8A2400",
"-#	c #8B1C00",
";#	c #881200",
">#	c #7B0000",
",#	c #660000",
"'#	c #640000",
")#	c #600000",
"!#	c #060201",
"~#	c #2C1B21",
"{#	c #474344",
"]#	c #2A2A2A",
"^#	c #55555F",
"/#	c #434A50",
"(#	c #191504",
"_#	c #1A0904",
":#	c #681D00",
"<#	c #751F00",
"[#	c #812100",
"}#	c #842400",
"|#	c #812900",
"1#	c #842C00",
"2#	c #892400",
"3#	c #891700",
"4#	c #7B0C00",
"5#	c #770A00",
"6#	c #720000",
"7#	c #690000",
"8#	c #610000",
"9#	c #650100",
"0#	c #150000",
"a#	c #1F1E1A",
"b#	c #424743",
"c#	c #272727",
"d#	c #2E2E2E",
"e#	c #3B3B3B",
"f#	c #454545",
"g#	c #23212C",
"h#	c #0B0502",
"i#	c #150401",
"j#	c #500C00",
"k#	c #771F00",
"l#	c #812400",
"m#	c #862400",
"n#	c #8B1700",
"o#	c #820E00",
"p#	c #7E0B00",
"q#	c #770800",
"r#	c #670000",
"s#	c #460000",
"t#	c #1B0000",
"u#	c #090202",
"v#	c #170F0E",
"w#	c #2E302F",
"x#	c #393F3F",
"y#	c #262626",
"z#	c #1D1D1D",
"A#	c #202020",
"B#	c #242424",
"C#	c #3A2C2B",
"D#	c #3B3738",
"E#	c #28272B",
"F#	c #0C0608",
"G#	c #060100",
"H#	c #020000",
"I#	c #300200",
"J#	c #5A0E00",
"K#	c #6C0C00",
"L#	c #790A00",
"M#	c #690700",
"N#	c #0D0000",
"O#	c #000000",
"P#	c #1F110E",
"Q#	c #372C2A",
"R#	c #3F3A37",
"S#	c #323433",
"T#	c #232323",
"U#	c #1E1E1E",
"V#	c #1F1F1F",
"W#	c #181E1C",
"X#	c #1B2524",
"Y#	c #202A2C",
"Z#	c #302F37",
"`#	c #39343B",
" $	c #242025",
".$	c #0C090A",
"+$	c #090405",
"@$	c #050406",
"#$	c #030101",
"$$	c #060402",
"%$	c #070504",
"&$	c #0F0E0D",
"*$	c #37383C",
"=$	c #32332E",
"-$	c #212121",
";$	c #1A1A1A",
">$	c #191919",
",$	c #211819",
"'$	c #1A1B16",
")$	c #1B2019",
"!$	c #1F201A",
"~$	c #211E19",
"{$	c #2B2623",
"]$	c #31302E",
"^$	c #332F2E",
"/$	c #343530",
"($	c #2F362E",
"_$	c #2A3429",
":$	c #2A2F28",
"<$	c #2B2A26",
"[$	c #1C1B1C",
"}$	c #1B191B",
"|$	c #19171A",
"1$	c #1B1714",
"2$	c #151A14",
"3$	c #171914",
"4$	c #1E1D19",
"5$	c #1C1B20",
"6$	c #181617",
"7$	c #0D1E18",
"8$	c #241B1E",
"9$	c #181818",
"  . + @ # $ % & * = - ; > , ' ) ! ~ { ] ^ / ( _ : < [ } | 1 2 3 4 ",
"5 6 7 8 9 0 a b c d e f g h i j k l m n o p q r s t u v w x y z A ",
"B C D E F G G G H I H H J K K L M N O P Q R S T U V W X Y Z `  ...",
"+.@.#.$.%.&.*.=.-.;.>.,.'.).!.~.{.].^./.(._.:.<.[.}.|.1.2.3.4.5.6.",
"7.8.9.0.a.b.c.d.e.f.g.h.i.j.k.l.m.n.o.p.q.r.s.t.u.v.w.x.y.z.A.B.C.",
"D.E.F.G.H.I.J.K.L.M.N.O.-.P.Q.R.S.T.U.V.W.X.Y.Z.`. + +`..+++@+#+$+",
"%+&+*+=+-+;+>+,+'+)+!+~+{+]+^+/+(+_+:+<+[+}+|+1+2+3+4+3+5+6+7+8+9+",
"0+a+b+c+d+e+f+g+h+,+i+!+j+k+l+m+/+n+<+o+[+p+|+q+3+5+5+r+s+t+u+v+v+",
"w+x+y+z+A+B+C+D+E+F+G+H+I+j+J+I+^+K+<+L+}+M+}+N+q+O+P+O+Q+R+S+T+T+",
"U+V+W+X+Y+Z+`+ @.@+@)+@@#@~+H+J+$@%@&@*@=@-@<+;@2+|+2+>@,@'@)@)@)@",
"!@X+~@{@]@^@/@(@_@:@<@G+J+[@}@#@m+|@1@n+2@-@L+[+q+3@4@5@6@7@8@8@8@",
"9@W+0@a@b@c@d@e@f@e+g@F+!+h@~+l+i@j@/+1@2@k@p+3+3@4@l@m@n@o@o@o@o@",
"p@q@r@s@r@t@u@&+v@w@x@y@z@~+A@i@B@/+1@C@<+D@3@N+E@F@G@H@I@I@I@I@I@",
"J@K@L@M@N@q@O@P@Q@R@S@T@U@V@{+W@/+X@K+K+=@*@[+E@Y@l@Z@`@`@`@`@`@`@",
" #.#+#@###$#%#&#*#=#-#;#T@V@>#^+,#'#1@)#C@&@3+!#~#{#]#]#]#]#]#]#]#",
"^#/#(#_#:#<#[#}#|#1#2#3#4#5#6#i@i@7#8#9#_+0#Y@a#b#c#c#c#c#c#c#c#c#",
"d#e#f#g#h#i#j#k#l#m#*+n#o#p#q#j@|@r#s#t#u#v#w#x#y#y#y#y#y#y#y#y#y#",
"z#A#B#C#D#E#F#G#H#I#J#K#L#M#}+4@N#O#O#P#Q#R#S#T#T#T#T#T#T#T#T#T#T#",
"z#U#V#W#X#Y#Z#`# $.$+$@$F@#$$$%$&$]#*$=$-$-$-$-$-$-$-$-$-$-$-$-$-$",
"G@;$>$,$'$)$!$~${$]$w#^$/$($_$_$:$<$V#V#V#V#V#V#V#V#V#V#V#V#V#V#V#",
"z#z#[$}$|$1$1$2$3$4$z#z#z#z#z#z#z#z#z#z#z#z#z#z#z#z#z#z#z#z#z#z#z#",
"A#V#U#1$1$1$1$1$1$5$A#A#A#A#A#A#A#A#A#A#A#A#A#A#A#A#A#A#A#A#A#A#A#",
"V#V#V#V#1$6$1$1$1$1$7$8$V#V#V#V#V#V#V#V#V#V#V#V#V#V#V#V#V#V#V#V#V#",
"9$9$9$9$9$9$9$9$9$9$9$9$9$9$9$9$9$9$9$9$9$9$9$9$9$9$9$9$9$9$9$9$9$"};
