/* XPM */
static char * close_active_xpm[] = {
"33 24 584 2",
"  	c #FBFAF8",
". 	c #FFD3B2",
"+ 	c #FFD1B0",
"@ 	c #FDCEB0",
"# 	c #FFCCAC",
"$ 	c #FFCAA6",
"% 	c #FECEA6",
"& 	c #FFD4AA",
"* 	c #FDC8A0",
"= 	c #FFC8A0",
"- 	c #F8BE96",
"; 	c #FEBD9D",
"> 	c #FBB59B",
", 	c #FAB49A",
"' 	c #EFB494",
") 	c #F2B596",
"! 	c #EEB296",
"~ 	c #EAB196",
"{ 	c #E2AB8D",
"] 	c #DBA88D",
"^ 	c #DAA78C",
"/ 	c #D7A58C",
"( 	c #D3A48A",
"_ 	c #D4A58B",
": 	c #D7A58E",
"< 	c #D5A18B",
"[ 	c #D29B86",
"} 	c #DC9D8E",
"| 	c #E2A589",
"1 	c #D7A686",
"2 	c #6E4E41",
"3 	c #2C3B34",
"4 	c #9A9EA1",
"5 	c #F0FFF1",
"6 	c #FFD4A7",
"7 	c #FBD7A7",
"8 	c #FDD1A2",
"9 	c #FECA98",
"0 	c #FFCB93",
"a 	c #FFC78D",
"b 	c #F8C586",
"c 	c #F7C183",
"d 	c #FFB982",
"e 	c #F9B47B",
"f 	c #FDA86F",
"g 	c #FEA46F",
"h 	c #ED9D62",
"i 	c #F89B60",
"j 	c #F1915F",
"k 	c #E98760",
"l 	c #DF885B",
"m 	c #E07C48",
"n 	c #C97656",
"o 	c #C77454",
"p 	c #C17052",
"q 	c #BC6D4E",
"r 	c #BA6B4D",
"s 	c #BA694C",
"t 	c #B66548",
"u 	c #B25E44",
"v 	c #B74D4D",
"w 	c #B85043",
"x 	c #BA5A4C",
"y 	c #804B47",
"z 	c #413F40",
"A 	c #98969B",
"B 	c #FFE8C0",
"C 	c #FC7756",
"D 	c #FB7051",
"E 	c #FB7649",
"F 	c #F9794A",
"G 	c #FD8455",
"H 	c #FF8154",
"I 	c #FE8556",
"J 	c #FE8455",
"K 	c #FF7A56",
"L 	c #F86E4A",
"M 	c #F56952",
"N 	c #F77053",
"O 	c #F05E45",
"P 	c #EC644E",
"Q 	c #E15349",
"R 	c #DE5E55",
"S 	c #D15249",
"T 	c #BF5640",
"U 	c #B25543",
"V 	c #B05341",
"W 	c #AA513F",
"X 	c #A8513E",
"Y 	c #AA5342",
"Z 	c #AC5544",
"` 	c #AB5244",
" .	c #AA4E41",
"..	c #AE564C",
"+.	c #B15443",
"@.	c #B5534A",
"#.	c #5B342F",
"$.	c #4A4A4A",
"%.	c #929093",
"&.	c #FFEEB3",
"*.	c #FB6A4D",
"=.	c #FF6A4B",
"-.	c #FE674A",
";.	c #FF6E54",
">.	c #FE7156",
",.	c #FF8565",
"'.	c #FF855D",
").	c #FF8456",
"!.	c #FC7D50",
"~.	c #FF764F",
"{.	c #F57B48",
"].	c #FF6C4D",
"^.	c #EA6A47",
"/.	c #EC6144",
"(.	c #EA5D4C",
"_.	c #C45A4D",
":.	c #6B2D14",
"<.	c #C15843",
"[.	c #B25043",
"}.	c #AF4F41",
"|.	c #AB4D41",
"1.	c #A94F44",
"2.	c #AB5148",
"3.	c #AA5047",
"4.	c #A94F47",
"5.	c #A45342",
"6.	c #AD5442",
"7.	c #AF4C47",
"8.	c #3E221E",
"9.	c #626264",
"0.	c #8B868A",
"a.	c #FCD89C",
"b.	c #F56451",
"c.	c #E26141",
"d.	c #EA6345",
"e.	c #FF6B53",
"f.	c #FF6C56",
"g.	c #FE7D56",
"h.	c #FC7D52",
"i.	c #FB8056",
"j.	c #B85830",
"k.	c #EA6D5B",
"l.	c #FD7045",
"m.	c #FD674E",
"n.	c #FF6951",
"o.	c #D85247",
"p.	c #51261D",
"q.	c #724B3C",
"r.	c #CA4E42",
"s.	c #B45448",
"t.	c #B05246",
"u.	c #AA5045",
"v.	c #A75046",
"w.	c #A55147",
"x.	c #A45149",
"y.	c #A44F48",
"z.	c #A44F4A",
"A.	c #A45743",
"B.	c #A85641",
"C.	c #9F4F48",
"D.	c #221711",
"E.	c #787C7F",
"F.	c #6A686B",
"G.	c #F0D278",
"H.	c #EE6747",
"I.	c #E86B3D",
"J.	c #EE6C3B",
"K.	c #F2683A",
"L.	c #FC6E3E",
"M.	c #F07A3A",
"N.	c #FF844A",
"O.	c #FB7E52",
"P.	c #985938",
"Q.	c #5A2C1D",
"R.	c #E06D52",
"S.	c #FF6E4D",
"T.	c #FF6740",
"U.	c #D86246",
"V.	c #5B2D13",
"W.	c #7C523C",
"X.	c #D48C73",
"Y.	c #C55740",
"Z.	c #B95243",
"`.	c #B54F41",
" +	c #AC5043",
".+	c #A85046",
"++	c #A85148",
"@+	c #A7523D",
"#+	c #A64D3B",
"$+	c #7E483C",
"%+	c #1D1C17",
"&+	c #767B7F",
"*+	c #4C4C4C",
"=+	c #ECA249",
"-+	c #D4260D",
";+	c #D91E00",
">+	c #E32108",
",+	c #E4200A",
"'+	c #E32A0C",
")+	c #EE390E",
"!+	c #FE390C",
"~+	c #FF3B16",
"{+	c #FF7559",
"]+	c #994E2E",
"^+	c #671A0A",
"/+	c #A9260A",
"(+	c #B0290B",
"_+	c #631805",
":+	c #823428",
"<+	c #DE644D",
"[+	c #BD210A",
"}+	c #AE170E",
"|+	c #A11B02",
"1+	c #9B1900",
"2+	c #961800",
"3+	c #911900",
"4+	c #8C1800",
"5+	c #881600",
"6+	c #871400",
"7+	c #871401",
"8+	c #8F0F06",
"9+	c #8D120B",
"0+	c #3E0E02",
"a+	c #514547",
"b+	c #65646C",
"c+	c #3C3C3C",
"d+	c #E3913F",
"e+	c #D41F14",
"f+	c #E11C09",
"g+	c #D02400",
"h+	c #E1210A",
"i+	c #E12712",
"j+	c #E9220B",
"k+	c #F12D07",
"l+	c #FF2D0A",
"m+	c #FF2E19",
"n+	c #F3734C",
"o+	c #96442C",
"p+	c #6B1E0A",
"q+	c #652011",
"r+	c #923A30",
"s+	c #E76857",
"t+	c #C32206",
"u+	c #C31B00",
"v+	c #B91605",
"w+	c #A41705",
"x+	c #9E1503",
"y+	c #991401",
"z+	c #951605",
"A+	c #911606",
"B+	c #8B1303",
"C+	c #8A1204",
"D+	c #8B1305",
"E+	c #8A1607",
"F+	c #7E1206",
"G+	c #130700",
"H+	c #676B6A",
"I+	c #3A3A3A",
"J+	c #E57C3A",
"K+	c #C92009",
"L+	c #DA1C06",
"M+	c #D02104",
"N+	c #E21D0D",
"O+	c #D32503",
"P+	c #DD2501",
"Q+	c #F2240F",
"R+	c #F32C0D",
"S+	c #FE330B",
"T+	c #FB2F0E",
"U+	c #F97050",
"V+	c #EE7E6A",
"W+	c #EA8A72",
"X+	c #DE6641",
"Y+	c #C72405",
"Z+	c #CB1F0B",
"`+	c #B8240A",
" @	c #AF2100",
".@	c #B31708",
"+@	c #A41C04",
"@@	c #9A1900",
"#@	c #9E1A05",
"$@	c #A2150C",
"%@	c #9D1505",
"&@	c #931A00",
"*@	c #8B1805",
"=@	c #921209",
"-@	c #3A1505",
";@	c #393B38",
">@	c #635866",
",@	c #393939",
"'@	c #DF7029",
")@	c #D21D00",
"!@	c #E02000",
"~@	c #D42709",
"{@	c #D92409",
"]@	c #DD2000",
"^@	c #DD2604",
"/@	c #D9230B",
"(@	c #EB2A0B",
"_@	c #F23108",
":@	c #F13414",
"<@	c #6C1502",
"[@	c #480A00",
"}@	c #490A05",
"|@	c #590C00",
"1@	c #B82511",
"2@	c #CE1A01",
"3@	c #B91A00",
"4@	c #B91D07",
"5@	c #B0190E",
"6@	c #B01B05",
"7@	c #A12108",
"8@	c #9D1B05",
"9@	c #A01E06",
"0@	c #9F150B",
"a@	c #A3140C",
"b@	c #9D1B00",
"c@	c #70190F",
"d@	c #120100",
"e@	c #5E6462",
"f@	c #373737",
"g@	c #D35F24",
"h@	c #D82713",
"i@	c #E2290D",
"j@	c #E72406",
"k@	c #DC1E08",
"l@	c #DB1E0B",
"m@	c #D62008",
"n@	c #D62504",
"o@	c #F22707",
"p@	c #E93117",
"q@	c #761800",
"r@	c #793123",
"s@	c #F89B89",
"t@	c #F79383",
"u@	c #883128",
"v@	c #520A00",
"w@	c #A2180D",
"x@	c #B81609",
"y@	c #AE180A",
"z@	c #AB1A09",
"A@	c #A21A0A",
"B@	c #A21B07",
"C@	c #9B1E00",
"D@	c #9C1600",
"E@	c #A5200F",
"F@	c #961F0B",
"G@	c #A41B09",
"H@	c #290900",
"I@	c #33362B",
"J@	c #4A4F52",
"K@	c #333333",
"L@	c #D95117",
"M@	c #E6280E",
"N@	c #EB2701",
"O@	c #E82A06",
"P@	c #E42010",
"Q@	c #E11C13",
"R@	c #D02B0B",
"S@	c #E62810",
"T@	c #7F2002",
"U@	c #733624",
"V@	c #F57C61",
"W@	c #EC3112",
"X@	c #ED3A12",
"Y@	c #DE6F53",
"Z@	c #7C362C",
"`@	c #4F0D00",
" #	c #A3190F",
".#	c #A61905",
"+#	c #9E1800",
"@#	c #9E1908",
"##	c #A2200A",
"$#	c #9E1D00",
"%#	c #A21C03",
"&#	c #9A1F00",
"*#	c #901D0A",
"=#	c #380600",
"-#	c #2D2A25",
";#	c #4F5855",
">#	c #313131",
",#	c #DE491E",
"'#	c #F1270F",
")#	c #FC2E00",
"!#	c #E73205",
"~#	c #E7330E",
"{#	c #EA340F",
"]#	c #E93616",
"^#	c #902306",
"/#	c #812D11",
"(#	c #FB8267",
"_#	c #FB3F1A",
":#	c #F42D04",
"<#	c #E73004",
"[#	c #DA240E",
"}#	c #D1694E",
"|#	c #BC654A",
"1#	c #A31C09",
"2#	c #A11500",
"3#	c #A41807",
"4#	c #A31C00",
"5#	c #9F1B04",
"6#	c #AB1808",
"7#	c #A51B00",
"8#	c #9E1B09",
"9#	c #421A10",
"0#	c #252525",
"a#	c #4F4D52",
"b#	c #2F2F2F",
"c#	c #411605",
"d#	c #AB241E",
"e#	c #F43018",
"f#	c #FE3605",
"g#	c #FC3E0C",
"h#	c #F63A0D",
"i#	c #F33A0C",
"j#	c #EB3A11",
"k#	c #F77752",
"l#	c #FC9163",
"m#	c #FF451C",
"n#	c #F63806",
"o#	c #EB380D",
"p#	c #E52E0E",
"q#	c #D42A09",
"r#	c #D2220B",
"s#	c #C42F1B",
"t#	c #A81F0C",
"u#	c #A31801",
"v#	c #9D1603",
"w#	c #991200",
"x#	c #A91805",
"y#	c #AC1F18",
"z#	c #330B01",
"A#	c #070000",
"B#	c #3F3E43",
"C#	c #2D2D2D",
"D#	c #38453E",
"E#	c #1D0400",
"F#	c #873D20",
"G#	c #DB3D1A",
"H#	c #F14217",
"I#	c #F14C1C",
"J#	c #F14419",
"K#	c #F94B18",
"L#	c #F5541D",
"M#	c #FF5524",
"N#	c #F84B11",
"O#	c #F84411",
"P#	c #E7360D",
"Q#	c #E32C0C",
"R#	c #DB2D0A",
"S#	c #D02907",
"T#	c #D81E0F",
"U#	c #B11E0E",
"V#	c #981702",
"W#	c #951400",
"X#	c #94180C",
"Y#	c #971C0D",
"Z#	c #841609",
"`#	c #270F05",
" $	c #332026",
".$	c #474344",
"+$	c #2A2A2A",
"@$	c #55555F",
"#$	c #434A50",
"$$	c #1D1805",
"%$	c #4C210E",
"&$	c #B9461A",
"*$	c #E0551A",
"=$	c #E3501A",
"-$	c #F65119",
";$	c #FA5B1A",
">$	c #F65C20",
",$	c #F7581E",
"'$	c #FC3F15",
")$	c #F43113",
"!$	c #E32E13",
"~$	c #D5360E",
"{$	c #DD3005",
"]$	c #B42002",
"^$	c #A51D0D",
"/$	c #9B1605",
"($	c #8A1600",
"_$	c #531200",
":$	c #080200",
"<$	c #201F1B",
"[$	c #424743",
"}$	c #272727",
"|$	c #2E2E2E",
"1$	c #3B3B3B",
"2$	c #454545",
"3$	c #23212C",
"4$	c #110803",
"5$	c #4C2209",
"6$	c #AC5027",
"7$	c #D95A23",
"8$	c #ED5F1D",
"9$	c #FA661E",
"0$	c #F4560F",
"a$	c #F03D1D",
"b$	c #EC3817",
"c$	c #E82F10",
"d$	c #E12809",
"e$	c #D62708",
"f$	c #CB2A0E",
"g$	c #B8230B",
"h$	c #A21700",
"i$	c #361715",
"j$	c #210907",
"k$	c #1B1110",
"l$	c #2E302F",
"m$	c #393F3F",
"n$	c #262626",
"o$	c #1D1D1D",
"p$	c #202020",
"q$	c #242424",
"r$	c #3A2C2B",
"s$	c #3B3738",
"t$	c #28272C",
"u$	c #12090C",
"v$	c #190600",
"w$	c #451F0C",
"x$	c #85381C",
"y$	c #B74628",
"z$	c #D93301",
"A$	c #DC3B0D",
"B$	c #C7320A",
"C$	c #A32205",
"D$	c #7F200C",
"E$	c #521C10",
"F$	c #200D09",
"G$	c #000100",
"H$	c #281612",
"I$	c #372C2A",
"J$	c #3F3A37",
"K$	c #323433",
"L$	c #232323",
"M$	c #1E1E1E",
"N$	c #1F1F1F",
"O$	c #181E1C",
"P$	c #1B2524",
"Q$	c #202A2C",
"R$	c #302F37",
"S$	c #39343B",
"T$	c #2A252B",
"U$	c #171113",
"V$	c #170B0D",
"W$	c #0D0B10",
"X$	c #040203",
"Y$	c #070302",
"Z$	c #0E0906",
"`$	c #110D0A",
" %	c #1D1C1A",
".%	c #37383C",
"+%	c #32332E",
"@%	c #212121",
"#%	c #1C1C1C",
"$%	c #1A1A1A",
"%%	c #191919",
"&%	c #211819",
"*%	c #1A1B16",
"=%	c #1B2019",
"-%	c #1F201A",
";%	c #211E19",
">%	c #2B2623",
",%	c #31302E",
"'%	c #332F2E",
")%	c #343530",
"!%	c #2F362E",
"~%	c #2A3429",
"{%	c #2A2F28",
"]%	c #2B2A26",
"^%	c #1C1B1C",
"/%	c #1B191B",
"(%	c #19171A",
"_%	c #1B1714",
":%	c #151A14",
"<%	c #171914",
"[%	c #1E1D19",
"}%	c #1C1B20",
"|%	c #181617",
"1%	c #0D1E18",
"2%	c #241B1E",
"3%	c #181818",
"  . + @ # $ % & * = - ; > , ' ) ! ~ { ] ^ / ( _ : < [ } | 1 2 3 4 ",
"5 6 7 8 9 0 a b c d e f g h i j k l m n o p q r s t u v w x y z A ",
"B C D E F G H I J K L M N O P Q R S T U V W X Y Z `  ...+.@.#.$.%.",
"&.*.=.-.;.>.,.'.).!.~.{.].^./.(._.:.<.[.}.|. .1.2.3.4.5.6.7.8.9.0.",
"a.b.c.d.e.f.g.h.i.j.k.l.m.n./.o.p.q.r.s.t.u.v.w.x.y.z.A.B.C.D.E.F.",
"G.H.I.J.K.L.M.N.O.P.Q.R.S.T.U.V.W.X.Y.Z.`.}. +u..+v.++@+#+$+%+&+*+",
"=+-+;+>+,+'+)+!+~+{+]+^+/+(+_+:+<+[+}+|+1+2+3+4+5+6+7+8+9+0+a+b+c+",
"d+e+f+g+h+i+j+k+l+m+n+o+p+q+r+s+t+u+v+w+x+y+z+A+B+C+D+E+F+G+H+I+I+",
"J+K+L+M+N+O+P+Q+R+S+T+U+V+W+X+Y+Z+`+ @.@+@@@#@$@%@&@*@=@-@;@>@,@,@",
"'@)@!@~@{@]@^@/@(@_@:@<@[@}@|@1@2@3@4@5@6@7@8@9@0@a@b@c@d@e@f@f@f@",
"g@h@i@j@k@l@m@n@o@p@q@r@s@t@u@v@w@x@y@z@A@B@C@D@E@F@G@H@I@J@K@K@K@",
"L@M@N@O@P@Q@R@(@S@T@U@V@W@X@Y@Z@`@ #.#+#@###$#%#&#*#=#-#;#>#>#>#>#",
",#'#)#!#~#{#N@]#^#/#(#_#:#<#[#}#|#1#2#3#4#5#6#7#8#9#0#a#b#b#b#b#b#",
"c#d#e#f#g#h#i#j#k#l#m#n#o#p#q#r#s#t#u#v#w#x#.#y#z#A#B#C#C#C#C#C#C#",
"D#E#F#G#H#I#J#K#L#M#N#O#P#Q#R#S#T#U#V#W#X#Y#Z#`# $.$+$+$+$+$+$+$+$",
"@$#$$$%$&$*$=$-$;$>$,$'$)$!$~${$g+]$^$/$($_$:$<$[$}$}$}$}$}$}$}$}$",
"|$1$2$3$4$5$6$7$8$9$0$a$b$c$d$e$f$g$h$i$j$k$l$m$n$n$n$n$n$n$n$n$n$",
"o$p$q$r$s$t$u$v$w$x$y$z$A$B$C$D$E$F$G$H$I$J$K$L$L$L$L$L$L$L$L$L$L$",
"o$M$N$O$P$Q$R$S$T$U$V$W$X$Y$Z$`$ %b#.%+%@%@%@%@%@%@%@%@%@%@%@%@%@%",
"#%$%%%&%*%=%-%;%>%,%l$'%)%!%~%~%{%]%N$N$N$N$N$N$N$N$N$N$N$N$N$N$N$",
"o$o$^%/%(%_%_%:%<%[%o$o$o$o$o$o$o$o$o$o$o$o$o$o$o$o$o$o$o$o$o$o$o$",
"p$N$M$_%_%_%_%_%_%}%p$p$p$p$p$p$p$p$p$p$p$p$p$p$p$p$p$p$p$p$p$p$p$",
"N$N$N$N$_%|%_%_%_%_%1%2%N$N$N$N$N$N$N$N$N$N$N$N$N$N$N$N$N$N$N$N$N$",
"3%3%3%3%3%3%3%3%3%3%3%3%3%3%3%3%3%3%3%3%3%3%3%3%3%3%3%3%3%3%3%3%3%"};
