/* XPM */
static char * hide_active_xpm[] = {
"28 24 402 2",
"  	c #201C1B",
". 	c #E3C5A3",
"+ 	c #E7C298",
"@ 	c #E9BE91",
"# 	c #E5BD8C",
"$ 	c #EBC797",
"% 	c #E0BE8E",
"& 	c #EAC692",
"* 	c #E4C18B",
"= 	c #F0BD92",
"- 	c #EDBE92",
"; 	c #ECC091",
"> 	c #F2BE8C",
", 	c #F7C499",
"' 	c #EDBBA0",
") 	c #F6BD9F",
"! 	c #FAC495",
"~ 	c #FEBF93",
"{ 	c #F0C090",
"] 	c #FFB89E",
"^ 	c #FFBEA0",
"/ 	c #FFC29D",
"( 	c #F5C9A2",
"_ 	c #FFC3A8",
": 	c #FEC8A2",
"< 	c #F7C9A5",
"[ 	c #FFD0AE",
"} 	c #E08A71",
"| 	c #1F1B1A",
"1 	c #AA7D54",
"2 	c #C88F5A",
"3 	c #D79757",
"4 	c #D5995A",
"5 	c #D8A264",
"6 	c #D89C60",
"7 	c #D59055",
"8 	c #E0985E",
"9 	c #DD9E59",
"0 	c #D6A65A",
"a 	c #E2A264",
"b 	c #EE9D5E",
"c 	c #E7A95E",
"d 	c #EDB46F",
"e 	c #F8AC6E",
"f 	c #FBAB66",
"g 	c #F6B678",
"h 	c #F9B07D",
"i 	c #FCAE80",
"j 	c #FFB07F",
"k 	c #F6BD86",
"l 	c #FFC394",
"m 	c #FDC395",
"n 	c #FFCA92",
"o 	c #F7D0A7",
"p 	c #F9D2A9",
"q 	c #D29171",
"r 	c #3E3A39",
"s 	c #75533A",
"t 	c #B88253",
"u 	c #D08F4F",
"v 	c #CD9152",
"w 	c #BD864E",
"x 	c #CB8A54",
"y 	c #D28453",
"z 	c #D38152",
"A 	c #D47D52",
"B 	c #D58153",
"C 	c #E47F4B",
"D 	c #AC5D3F",
"E 	c #9D5B3B",
"F 	c #E18049",
"G 	c #EE8251",
"H 	c #F27B51",
"I 	c #F0764D",
"J 	c #F5783E",
"K 	c #E26B49",
"L 	c #8E4525",
"M 	c #F16943",
"N 	c #FF7B4A",
"O 	c #FA7B58",
"P 	c #FF855B",
"Q 	c #FD7952",
"R 	c #FE704C",
"S 	c #D7522F",
"T 	c #565553",
"U 	c #321F11",
"V 	c #B2825A",
"W 	c #CD884D",
"X 	c #CB894D",
"Y 	c #CC8F59",
"Z 	c #D18B58",
"` 	c #D08156",
" .	c #CD835C",
"..	c #D37957",
"+.	c #DD7B4E",
"@.	c #9F694F",
"#.	c #452820",
"$.	c #915032",
"%.	c #EB865C",
"&.	c #F07A56",
"*.	c #FA765D",
"=.	c #DE643B",
"-.	c #5A2D0C",
";.	c #723A2D",
">.	c #F27151",
",.	c #F68247",
"'.	c #FE8057",
").	c #F58756",
"!.	c #FD7C55",
"~.	c #FF7653",
"{.	c #CF5433",
"].	c #4C4C4C",
"^.	c #896B51",
"/.	c #B77C50",
"(.	c #C98652",
"_.	c #CB8756",
":.	c #C78450",
"<.	c #CA8A5A",
"[.	c #CF844B",
"}.	c #D57950",
"|.	c #DD7154",
"1.	c #ED8B66",
"2.	c #AE7D5D",
"3.	c #4B2A19",
"4.	c #9A462C",
"5.	c #F37449",
"6.	c #D66851",
"7.	c #5A311D",
"8.	c #764234",
"9.	c #F09F81",
"0.	c #F97A59",
"a.	c #FF8159",
"b.	c #FF7B4E",
"c.	c #FF7548",
"d.	c #FF7756",
"e.	c #FF714F",
"f.	c #DA4B3A",
"g.	c #474D4D",
"h.	c #291C13",
"i.	c #AF856C",
"j.	c #C17E54",
"k.	c #D18353",
"l.	c #CD814F",
"m.	c #C67F4B",
"n.	c #C9844D",
"o.	c #CC8241",
"p.	c #CB7949",
"q.	c #DD7143",
"r.	c #D57252",
"s.	c #E68E68",
"t.	c #B67E5B",
"u.	c #4C2214",
"v.	c #F07A4A",
"w.	c #93573F",
"x.	c #73402B",
"y.	c #EC9C85",
"z.	c #EC8258",
"A.	c #F17E48",
"B.	c #F87444",
"C.	c #FD7E49",
"D.	c #FC7A40",
"E.	c #F07B38",
"F.	c #FE813F",
"G.	c #CD562B",
"H.	c #3C3C3C",
"I.	c #4F4641",
"J.	c #281D19",
"K.	c #4B2A17",
"L.	c #984F24",
"M.	c #AE4E12",
"N.	c #B14D12",
"O.	c #B75015",
"P.	c #BC4F0E",
"Q.	c #B94D0F",
"R.	c #BF4B1C",
"S.	c #C84101",
"T.	c #7F2608",
"U.	c #7C1906",
"V.	c #D4673C",
"W.	c #AE6346",
"X.	c #DE4D18",
"Y.	c #B74E38",
"Z.	c #F1815C",
"`.	c #C23625",
" +	c #781700",
".+	c #EE3810",
"++	c #FF410F",
"@+	c #F93711",
"#+	c #FF3B14",
"$+	c #F5460F",
"%+	c #FF4413",
"&+	c #C9300E",
"*+	c #3A3A3A",
"=+	c #3B3D3A",
"-+	c #3F434F",
";+	c #0A0000",
">+	c #632B0A",
",+	c #A84D18",
"'+	c #A8430F",
")+	c #B64614",
"!+	c #C24108",
"~+	c #BE400D",
"{+	c #C23811",
"]+	c #C7390B",
"^+	c #B1563B",
"/+	c #491716",
"(+	c #661301",
"_+	c #EE6136",
":+	c #E93908",
"<+	c #EF5D2A",
"[+	c #BF310D",
"}+	c #501500",
"|+	c #833E21",
"1+	c #E84A1D",
"2+	c #F63C01",
"3+	c #FF3F12",
"4+	c #F5360C",
"5+	c #FD420F",
"6+	c #FF4212",
"7+	c #C62F10",
"8+	c #393939",
"9+	c #283339",
"0+	c #0B0205",
"a+	c #5D2F1F",
"b+	c #9B4722",
"c+	c #AC3D08",
"d+	c #BC3F05",
"e+	c #C13C0F",
"f+	c #B53603",
"g+	c #C32E0E",
"h+	c #C94727",
"i+	c #C7734F",
"j+	c #4D100B",
"k+	c #6A160C",
"l+	c #E3470C",
"m+	c #BB3711",
"n+	c #541100",
"o+	c #8A4035",
"p+	c #FF7B57",
"q+	c #F34A09",
"r+	c #F54307",
"s+	c #FF4414",
"t+	c #FF4A12",
"u+	c #FE5210",
"v+	c #FF5113",
"w+	c #B63613",
"x+	c #373737",
"y+	c #0F0600",
"z+	c #4C2311",
"A+	c #964124",
"B+	c #A3320A",
"C+	c #BC2D0D",
"D+	c #B33400",
"E+	c #BC2E00",
"F+	c #B72E00",
"G+	c #C3451F",
"H+	c #C17869",
"I+	c #491902",
"J+	c #DC481A",
"K+	c #8B3914",
"L+	c #88492A",
"M+	c #E88464",
"N+	c #E24414",
"O+	c #F64C0F",
"P+	c #F74B1B",
"Q+	c #F9481C",
"R+	c #F85514",
"S+	c #FF5B1B",
"T+	c #FF5619",
"U+	c #BD3817",
"V+	c #242424",
"W+	c #2C2C2C",
"X+	c #333333",
"Y+	c #261C1D",
"Z+	c #1F0000",
"`+	c #6C311F",
" @	c #AF3412",
".@	c #B02A04",
"+@	c #C32108",
"@@	c #C42F0E",
"#@	c #C62700",
"$@	c #CE4E2B",
"%@	c #C37A4D",
"&@	c #D14313",
"*@	c #C36339",
"=@	c #EB7F51",
"-@	c #E34313",
";@	c #FE3B05",
">@	c #F13601",
",@	c #F43D11",
"'@	c #FC4B17",
")@	c #EF5809",
"!@	c #F86619",
"~@	c #F95F17",
"{@	c #B63C0B",
"]@	c #1F1F1F",
"^@	c #202020",
"/@	c #252525",
"(@	c #303030",
"_@	c #4F494B",
":@	c #302C2D",
"<@	c #070506",
"[@	c #2D0E09",
"}@	c #792C18",
"|@	c #B32615",
"1@	c #B52908",
"2@	c #C43203",
"3@	c #CD2E07",
"4@	c #D74F25",
"5@	c #D43D08",
"6@	c #E35024",
"7@	c #D83F13",
"8@	c #E9330B",
"9@	c #F9330E",
"0@	c #FA3A13",
"a@	c #FA3812",
"b@	c #FB4110",
"c@	c #F25311",
"d@	c #F75E1B",
"e@	c #FB5B1D",
"f@	c #BB3309",
"g@	c #262626",
"h@	c #2F2F2F",
"i@	c #3F4650",
"j@	c #303435",
"k@	c #0C120E",
"l@	c #130709",
"m@	c #3C0E0E",
"n@	c #7E280F",
"o@	c #B22D0C",
"p@	c #CB3012",
"q@	c #C42E0D",
"r@	c #D73506",
"s@	c #CF3906",
"t@	c #D93D0C",
"u@	c #DE350A",
"v@	c #DC3106",
"w@	c #E13004",
"x@	c #E43202",
"y@	c #EB4110",
"z@	c #E5440D",
"A@	c #EC4614",
"B@	c #C12B06",
"C@	c #1E1E1E",
"D@	c #1D1D1D",
"E@	c #232323",
"F@	c #252422",
"G@	c #272528",
"H@	c #2D2D2D",
"I@	c #171A11",
"J@	c #060D05",
"K@	c #010000",
"L@	c #050704",
"M@	c #190006",
"N@	c #150B02",
"O@	c #120900",
"P@	c #1A0800",
"Q@	c #1D0C05",
"R@	c #170A04",
"S@	c #160400",
"T@	c #1E0604",
"U@	c #1E0904",
"V@	c #0E0307",
"W@	c #212121",
"X@	c #252120",
"Y@	c #252523",
"Z@	c #2F2E30",
"`@	c #323234",
" #	c #353438",
".#	c #37363B",
"+#	c #38373C",
"@#	c #39393D",
"##	c #3A3A3F",
"$#	c #3C3B40",
"%#	c #3D3D42",
"&#	c #3F3F44",
"*#	c #404046",
"=#	c #424247",
"-#	c #44444A",
";#	c #46474C",
">#	c #48494E",
",#	c #4A4B50",
"'#	c #4C4D52",
")#	c #202120",
"!#	c #222322",
"~#	c #252524",
"{#	c #262826",
"]#	c #292A28",
"^#	c #2A2C29",
"/#	c #1C1C1C",
"(#	c #1F1F1E",
"_#	c #222121",
":#	c #202121",
"<#	c #1E1D1D",
"[#	c #1B1B1B",
"}#	c #1A1A1A",
"|#	c #171717",
"1#	c #151515",
"2#	c #131313",
"3#	c #161616",
"4#	c #141414",
"5#	c #181818",
"  . + @ # $ % & * = - ; > , ' ) ! ~ { ] ^ / ( _ : < [ } ",
"| 1 2 3 4 5 6 7 8 9 0 a b c d e f g h i j k l m n o p q ",
"r s t u v w x y z A B C D E F G H I J K L M N O P Q R S ",
"T U V W X Y Z y `  ...+.@.#.$.%.&.*.=.-.;.>.,.'.).!.~.{.",
"].].^./.(._.(.:.<.[.}.|.1.2.3.4.5.6.7.8.9.0.a.b.c.d.e.f.",
"].g.h.i.j.k.l.m.n.o.p.q.r.s.t.u.v.w.x.y.z.A.B.C.D.E.F.G.",
"H.I.J.K.L.M.N.O.P.Q.R.S.T.U.V.W.X.Y.Z.`. +.+++@+#+$+%+&+",
"*+=+-+;+>+,+'+)+!+~+{+]+^+/+(+_+:+<+[+}+|+1+2+3+4+5+6+7+",
"*+8+8+9+0+a+b+c+d+e+f+g+h+i+j+k+l+m+n+o+p+q+r+s+t+u+v+w+",
"x+x+x+x+x+y+z+A+B+C+D+E+F+G+H+I+J+K+L+M+N+O+P+Q+R+S+T+U+",
"V+W+X+X+X+X+Y+Z+`+ @.@+@@@#@$@%@&@*@=@-@;@>@,@'@)@!@~@{@",
"]@^@/@W+(@(@_@:@<@[@}@|@1@2@3@4@5@6@7@8@9@0@a@b@c@d@e@f@",
"^@]@]@^@g@h@h@h@i@j@k@l@m@n@o@p@q@r@s@t@u@v@w@x@y@z@A@B@",
"]@^@^@C@D@D@E@F@G@H@H@H@H@I@J@K@L@M@N@O@P@Q@R@S@T@P@U@V@",
"C@C@C@C@C@C@C@W@X@Y@H@Z@`@ #.#+#@###$#%#&#*#=#-#;#>#,#'#",
"D@D@D@D@D@D@D@D@D@D@C@)#!#~#{#]#^#^#^#^#^#^#^#^#^#^#^#^#",
"/#(#E@g@g@g@^@/#/#/#/#/#/#/#/#/#/#/#/#/#/#/#/#/#/#/#/#/#",
"W@E@E@E@E@E@E@E@E@E@E@E@E@E@E@_#]@D@D@D@D@D@D@D@D@D@D@D@",
"W@W@W@W@W@W@W@W@W@W@W@W@W@W@W@W@W@W@W@W@:#^@(#<#D@/#[#[#",
"]@]@]@]@]@]@]@]@]@]@]@/#}#}#/#]@]@]@]@D@[#}#}#}#}#[#[#[#",
"D@D@D@D@D@D@D@D@D@D@D@D@/#}#|#1#2#3#1#4#1#3#3#3#3#3#3#3#",
"^@^@^@^@^@^@^@^@^@^@^@^@^@]@/#5#3#|#|#|#|#5#5#|#3#5#5#5#",
"]@]@]@]@]@]@]@]@]@]@]@]@]@]@]@]@]@D@/#/#[#[#/#/#D@D@C@]@",
"5#5#5#5#5#5#5#5#5#5#5#5#5#5#5#5#5#5#5#5#5#5#5#5#5#5#5#5#"};
