/* XPM */
static char * hide_inactive_xpm[] = {
"29 24 380 2",
"  	c #9E9A9C",
". 	c #131110",
"+ 	c #93735D",
"@ 	c #916B50",
"# 	c #91684E",
"$ 	c #8F674B",
"% 	c #90694D",
"& 	c #8E674C",
"* 	c #8E684C",
"= 	c #8B674B",
"- 	c #8E674F",
"; 	c #91674D",
"> 	c #92664D",
", 	c #95684E",
"' 	c #996A52",
") 	c #9A6C54",
"! 	c #9C6D54",
"~ 	c #A07053",
"{ 	c #A27155",
"] 	c #9F7554",
"^ 	c #A27658",
"/ 	c #A2795A",
"( 	c #A37D5C",
"_ 	c #A28260",
": 	c #A48264",
"< 	c #A48564",
"[ 	c #A28467",
"} 	c #A18467",
"| 	c #83593E",
"1 	c #5F5B5C",
"2 	c #181514",
"3 	c #472612",
"4 	c #6F330F",
"5 	c #70340F",
"6 	c #70330C",
"7 	c #6F310A",
"8 	c #71310C",
"9 	c #6F2F0C",
"0 	c #6D2E0E",
"a 	c #703112",
"b 	c #6D3814",
"c 	c #6F3813",
"d 	c #743B14",
"e 	c #7C4019",
"f 	c #82451D",
"g 	c #86481F",
"h 	c #894D21",
"i 	c #8B5124",
"j 	c #89582C",
"k 	c #895B2D",
"l 	c #896231",
"m 	c #8B6A37",
"n 	c #8C713C",
"o 	c #8D7440",
"p 	c #8D7745",
"q 	c #8D7747",
"r 	c #8D7358",
"s 	c #71462F",
"t 	c #5B5758",
"u 	c #3D3938",
"v 	c #2F1708",
"w 	c #60250A",
"x 	c #67290F",
"y 	c #69260C",
"z 	c #692207",
"A 	c #6A2007",
"B 	c #681C05",
"C 	c #651A05",
"D 	c #671C09",
"E 	c #671C07",
"F 	c #691A05",
"G 	c #6D1A05",
"H 	c #741F07",
"I 	c #7A2109",
"J 	c #7D250A",
"K 	c #7E280A",
"L 	c #812B0C",
"M 	c #892E0D",
"N 	c #8A320F",
"O 	c #8A3A12",
"P 	c #8C4218",
"Q 	c #8C481C",
"R 	c #8D4C1F",
"S 	c #8D4D22",
"T 	c #8D4D24",
"U 	c #8A4D1B",
"V 	c #691E00",
"W 	c #505050",
"X 	c #565553",
"Y 	c #170E08",
"Z 	c #54250A",
"` 	c #612D10",
" .	c #682D10",
"..	c #672709",
"+.	c #6B2408",
"@.	c #671B05",
"#.	c #671B06",
"$.	c #691B07",
"%.	c #6A1805",
"&.	c #6F1905",
"*.	c #781E08",
"=.	c #7E2209",
"-.	c #812408",
";.	c #832909",
">.	c #852C0C",
",.	c #863512",
"'.	c #863813",
").	c #873F14",
"!.	c #894518",
"~.	c #89481A",
"{.	c #89481B",
"].	c #8A471B",
"^.	c #8A4312",
"/.	c #741F02",
"(.	c #4C4C4C",
"_.	c #444444",
":.	c #472007",
"<.	c #582A11",
"[.	c #622D12",
"}.	c #66290E",
"|.	c #6C260D",
"1.	c #6C240C",
"2.	c #6A1E0B",
"3.	c #6A1D0C",
"4.	c #681C0C",
"5.	c #6A1909",
"6.	c #6F1907",
"7.	c #791E0C",
"8.	c #80230C",
"9.	c #82260C",
"0.	c #84290C",
"a.	c #862E0F",
"b.	c #893612",
"c.	c #893913",
"d.	c #893E14",
"e.	c #8A4314",
"f.	c #8C4313",
"g.	c #8C4212",
"h.	c #8D3E10",
"i.	c #8D3B10",
"j.	c #864311",
"k.	c #701E03",
"l.	c #474D4D",
"m.	c #120C08",
"n.	c #5A3124",
"o.	c #65280E",
"p.	c #6C2707",
"q.	c #691E0A",
"r.	c #691D07",
"s.	c #691F04",
"t.	c #6E1905",
"u.	c #711A04",
"v.	c #792007",
"w.	c #7C260A",
"x.	c #7F2B0B",
"y.	c #82310D",
"z.	c #87370F",
"A.	c #873D0D",
"B.	c #843809",
"C.	c #863A09",
"D.	c #8C3F0E",
"E.	c #8D400F",
"F.	c #8B3D0E",
"G.	c #893B0C",
"H.	c #8B3C06",
"I.	c #671F00",
"J.	c #3C3C3C",
"K.	c #4F4641",
"L.	c #241A16",
"M.	c #0A0201",
"N.	c #430800",
"O.	c #550000",
"P.	c #5A0000",
"Q.	c #5B0400",
"R.	c #590000",
"S.	c #5F0000",
"T.	c #6B0000",
"U.	c #750400",
"V.	c #7A0B00",
"W.	c #7E1400",
"X.	c #811B00",
"Y.	c #881C00",
"Z.	c #861A00",
"`.	c #881A00",
" +	c #8B1C00",
".+	c #8B1B00",
"++	c #8B1900",
"@+	c #8A1800",
"#+	c #891600",
"$+	c #8C1900",
"%+	c #680000",
"&+	c #3A3A3A",
"*+	c #3B3D3A",
"=+	c #3F434F",
"-+	c #060000",
";+	c #140000",
">+	c #450A00",
",+	c #4A0000",
"'+	c #5C0000",
")+	c #600000",
"!+	c #5D0000",
"~+	c #630000",
"{+	c #6C0000",
"]+	c #760200",
"^+	c #7C0C00",
"/+	c #7E1700",
"(+	c #7D1E00",
"_+	c #851E00",
":+	c #851C00",
"<+	c #871D00",
"[+	c #8A1C00",
"}+	c #891900",
"|+	c #8B1700",
"1+	c #8D1700",
"2+	c #6A0000",
"3+	c #393939",
"4+	c #283339",
"5+	c #050102",
"6+	c #120000",
"7+	c #450400",
"8+	c #530000",
"9+	c #570000",
"0+	c #520000",
"a+	c #580000",
"b+	c #6D0900",
"c+	c #701100",
"d+	c #771800",
"e+	c #7E1C00",
"f+	c #7E1F00",
"g+	c #802000",
"h+	c #842100",
"i+	c #861F00",
"j+	c #841900",
"k+	c #881700",
"l+	c #8C1700",
"m+	c #8D1500",
"n+	c #891400",
"o+	c #620000",
"p+	c #2F2F2F",
"q+	c #373737",
"r+	c #070300",
"s+	c #0A0000",
"t+	c #440500",
"u+	c #4D0000",
"v+	c #5E0000",
"w+	c #660500",
"x+	c #6F0C00",
"y+	c #710D00",
"z+	c #751200",
"A+	c #7B1A00",
"B+	c #7E2100",
"C+	c #822400",
"D+	c #862700",
"E+	c #862300",
"F+	c #861C00",
"G+	c #891700",
"H+	c #8C1400",
"I+	c #8C1100",
"J+	c #891000",
"K+	c #232323",
"L+	c #242424",
"M+	c #2C2C2C",
"N+	c #333333",
"O+	c #1E1617",
"P+	c #050000",
"Q+	c #270000",
"R+	c #630200",
"S+	c #6A0500",
"T+	c #6F0A00",
"U+	c #741400",
"V+	c #771B00",
"W+	c #7A2400",
"X+	c #7F2800",
"Y+	c #842B00",
"Z+	c #852700",
"`+	c #842000",
" @	c #881D00",
".@	c #8A1200",
"+@	c #8A0D00",
"@@	c #1F1F1F",
"#@	c #202020",
"$@	c #252525",
"%@	c #303030",
"&@	c #4F494B",
"*@	c #2E2A2B",
"=@	c #040303",
"-@	c #040101",
";@	c #360000",
">@	c #490000",
",@	c #630600",
"'@	c #6A1100",
")@	c #731600",
"!@	c #791600",
"~@	c #792400",
"{@	c #7D2700",
"]@	c #812900",
"^@	c #822600",
"/@	c #892000",
"(@	c #8D1B00",
"_@	c #8B1400",
":@	c #8C0900",
"<@	c #262626",
"[@	c #3F4650",
"}@	c #2F3334",
"|@	c #080B09",
"1@	c #050202",
"2@	c #030000",
"3@	c #2F0000",
"4@	c #540300",
"5@	c #650C00",
"6@	c #671500",
"7@	c #6A1D00",
"8@	c #712400",
"9@	c #742600",
"0@	c #772800",
"a@	c #752400",
"b@	c #771F00",
"c@	c #7E1E00",
"d@	c #811800",
"e@	c #7D0F00",
"f@	c #850600",
"g@	c #1E1E1E",
"h@	c #1D1D1D",
"i@	c #252422",
"j@	c #272528",
"k@	c #2D2D2D",
"l@	c #2B2B2B",
"m@	c #10120C",
"n@	c #030602",
"o@	c #000000",
"p@	c #020302",
"q@	c #0A0002",
"r@	c #080401",
"s@	c #070400",
"t@	c #0A0300",
"u@	c #0C0502",
"v@	c #090402",
"w@	c #090200",
"x@	c #0C0202",
"y@	c #0C0402",
"z@	c #060103",
"A@	c #212121",
"B@	c #252120",
"C@	c #252523",
"D@	c #2F2E30",
"E@	c #323234",
"F@	c #353438",
"G@	c #37363B",
"H@	c #38373C",
"I@	c #39393D",
"J@	c #3A3A3F",
"K@	c #3C3B40",
"L@	c #3D3D42",
"M@	c #3F3F44",
"N@	c #404046",
"O@	c #424247",
"P@	c #44444A",
"Q@	c #46474C",
"R@	c #48494E",
"S@	c #4A4B50",
"T@	c #4C4D52",
"U@	c #202120",
"V@	c #222322",
"W@	c #252524",
"X@	c #262826",
"Y@	c #292A28",
"Z@	c #2A2C29",
"`@	c #1C1C1C",
" #	c #1F1F1E",
".#	c #222121",
"+#	c #202121",
"@#	c #1E1D1D",
"##	c #1B1B1B",
"$#	c #1A1A1A",
"%#	c #171717",
"&#	c #151515",
"*#	c #131313",
"=#	c #161616",
"-#	c #141414",
";#	c #181818",
"  . + @ # $ % & * = - ; > , ' ) ! ~ { ] ^ / ( _ : < [ } | ",
"1 2 3 4 5 6 7 8 9 0 a b c d e f g h i j k l m n o p q r s ",
"t u v w x y z A B C D E F G H I J K L M N O P Q R S T U V ",
"W X Y Z `  ...+.A @.#.$.%.&.*.=.-.;.>.,.'.).!.~.{.~.].^./.",
"(.(._.:.<.[.}.|.1.2.3.4.5.6.7.8.9.0.a.b.c.d.e.f.g.h.i.j.k.",
"(.(.l.m.n.o.p.z q.r.s.G t.u.v.w.x.y.z.A.B.C.D.E.E.F.G.H.I.",
"J.J.K.L.M.N.O.P.Q.O.R.P.R.S.T.U.V.W.X.Y.Z.`. +.+++@+#+$+%+",
"&+&+*+=+-+;+>+,+'+S.)+P.!+~+{+]+^+/+(+_+:+<+[+}+|+1+1+1+2+",
"&+&+3+3+4+5+6+7+8+9+0+0+a+~+T.b+c+d+e+f+g+h+i+j+k+l+m+n+o+",
"p+q+q+q+q+q+r+s+t+u+!+v+9+R.w+x+y+z+A+B+C+D+E+F+G+H+I+J+)+",
"K+L+M+N+N+N+N+O+P+Q+,+P.P.!+R+S+T+U+V+W+X+Y+Z+`+ @++.@+@'+",
"K+@@#@$@M+%@%@&@*@=@-@;@>@'+o+,@'@)@!@~@{@]@^@h+/@(@_@:@'+",
"#@#@@@@@#@<@p+p+p+[@}@|@1@2@3@4@5@6@7@8@9@0@a@b@c@d@e@f@0+",
"g@@@#@#@g@h@h@K+i@j@k@k@k@l@m@n@o@p@q@r@s@t@u@v@w@x@t@y@z@",
"g@g@g@g@g@g@g@g@A@B@C@k@D@E@F@G@H@I@J@K@L@M@N@O@P@Q@R@S@T@",
"h@h@h@h@h@h@h@h@h@h@h@g@U@V@W@X@Y@Z@Z@Z@Z@Z@Z@Z@Z@Z@Z@Z@Z@",
"`@`@ #K+<@<@<@#@`@`@`@`@`@`@`@`@`@`@`@`@`@`@`@`@`@`@`@`@`@",
"g@A@K+K+K+K+K+K+K+K+K+K+K+K+K+K+.#@@h@h@h@h@h@h@h@h@h@h@h@",
"A@A@A@A@A@A@A@A@A@A@A@A@A@A@A@A@A@A@A@A@A@+##@ #@#h@`@####",
"@@@@@@@@@@@@@@@@@@@@@@@@`@$#$#`@@@@@@@@@h@##$#$#$#$#######",
"h@h@h@h@h@h@h@h@h@h@h@h@h@`@$#%#&#*#=#&#-#&#=#=#=#=#=#=#=#",
"#@#@#@#@#@#@#@#@#@#@#@#@#@#@@@`@;#=#%#%#%#%#;#;#%#=#;#;#;#",
"@@@@@@@@@@@@@@@@@@@@@@@@@@@@@@@@@@@@h@`@`@####`@`@h@h@g@@@",
";#;#;#;#;#;#;#;#;#;#;#;#;#;#;#;#;#;#;#;#;#;#;#;#;#;#;#;#;#"};
