/* XPM */
static char * maximize_active_xpm[] = {
"26 24 401 2",
"  	c #FFFAFD",
". 	c #FCCFB0",
"+ 	c #FFD1BB",
"@ 	c #FFD1C1",
"# 	c #FAD0BA",
"$ 	c #FDDAB4",
"% 	c #FCD3C1",
"& 	c #F4D8CD",
"* 	c #FFD3C8",
"= 	c #FFD9C2",
"- 	c #FED9C7",
"; 	c #FFDDD5",
"> 	c #FFDAD4",
", 	c #FFE3CF",
"' 	c #F4E0D9",
") 	c #FEE0D6",
"! 	c #FFDACB",
"~ 	c #FFDACF",
"{ 	c #FFE0D5",
"] 	c #FFD5C5",
"^ 	c #FEDBC7",
"/ 	c #F6D4B9",
"( 	c #FCD7BC",
"_ 	c #FFD7C2",
": 	c #DC9078",
"< 	c #F8FFF6",
"[ 	c #FFDCB7",
"} 	c #FFD9BA",
"| 	c #FFDFC5",
"1 	c #FFE8C4",
"2 	c #FFE4D1",
"3 	c #FFEAD8",
"4 	c #FEECE0",
"5 	c #FFEBE4",
"6 	c #F6F8EB",
"7 	c #FFF7F2",
"8 	c #FFFDF5",
"9 	c #F5FFF9",
"0 	c #FFFCFF",
"a 	c #FEFDF8",
"b 	c #F7FBEC",
"c 	c #FCFDEF",
"d 	c #F3EFE4",
"e 	c #F8F9EB",
"f 	c #F5F4E2",
"g 	c #FDF2DE",
"h 	c #FFE8D2",
"i 	c #FFEECE",
"j 	c #FCE8C3",
"k 	c #FDE0BE",
"l 	c #D19B77",
"m 	c #FFE6BF",
"n 	c #FF7755",
"o 	c #FD7251",
"p 	c #FB7155",
"q 	c #FA5F43",
"r 	c #FF6644",
"s 	c #F66749",
"t 	c #FD654E",
"u 	c #FF6749",
"v 	c #FF724D",
"w 	c #FA6E53",
"x 	c #AA5035",
"y 	c #662D1A",
"z 	c #9A4131",
"A 	c #FD7C55",
"B 	c #FF7B4C",
"C 	c #FC8356",
"D 	c #FF8956",
"E 	c #FF7849",
"F 	c #FF784A",
"G 	c #FF7841",
"H 	c #F77752",
"I 	c #FF7651",
"J 	c #FF7752",
"K 	c #F87652",
"L 	c #D75531",
"M 	c #F9EDB3",
"N 	c #FF6C4B",
"O 	c #FB714C",
"P 	c #FD6E50",
"Q 	c #FF674C",
"R 	c #F16B46",
"S 	c #F96A5A",
"T 	c #F96559",
"U 	c #FF633F",
"V 	c #F96645",
"W 	c #B15643",
"X 	c #562810",
"Y 	c #A16C64",
"Z 	c #55291E",
"` 	c #9E3F29",
" .	c #FB7E60",
"..	c #FB7C5B",
"+.	c #FC7653",
"@.	c #FF7153",
"#.	c #FF7458",
"$.	c #FE6E4B",
"%.	c #F37954",
"&.	c #FF7452",
"*.	c #FF7453",
"=.	c #FA6D4F",
"-.	c #D34E2F",
";.	c #FFD59C",
">.	c #FF6E51",
",.	c #FA744E",
"'.	c #FF7154",
").	c #F56F49",
"!.	c #FF6D49",
"~.	c #FF694E",
"{.	c #F8684D",
"].	c #FF6D47",
"^.	c #C04D3B",
"/.	c #55271A",
"(.	c #C6866B",
"_.	c #DE7E6E",
":.	c #CF9683",
"<.	c #5A2610",
"[.	c #A65132",
"}.	c #FC734F",
"|.	c #FF6E50",
"1.	c #FF6C50",
"2.	c #F8664F",
"3.	c #FF634D",
"4.	c #FF6953",
"5.	c #F76146",
"6.	c #FF6851",
"7.	c #D94537",
"8.	c #F4D877",
"9.	c #FF7840",
"0.	c #FA803D",
"a.	c #FE7940",
"b.	c #FC8541",
"c.	c #FF7E42",
"d.	c #FF8039",
"e.	c #F5803B",
"f.	c #FF8341",
"g.	c #F49567",
"h.	c #DAA875",
"i.	c #E49658",
"j.	c #532800",
"k.	c #C38346",
"l.	c #E4B17C",
"m.	c #F4A668",
"n.	c #F97E38",
"o.	c #F87736",
"p.	c #F67B3F",
"q.	c #F5773C",
"r.	c #FA7846",
"s.	c #F3753B",
"t.	c #F6783E",
"u.	c #E87034",
"v.	c #F66F3F",
"w.	c #C64B29",
"x.	c #F8B453",
"y.	c #FB350E",
"z.	c #FF3A0D",
"A.	c #FF3B14",
"B.	c #FF3E11",
"C.	c #F93B0B",
"D.	c #FD460C",
"E.	c #FF4617",
"F.	c #FF430F",
"G.	c #FF4419",
"H.	c #F34C1F",
"I.	c #EC501D",
"J.	c #471607",
"K.	c #DA522C",
"L.	c #FF5F3D",
"M.	c #FB411B",
"N.	c #F6350C",
"O.	c #EB2D09",
"P.	c #ED2B0F",
"Q.	c #EA2409",
"R.	c #E82509",
"S.	c #E4280F",
"T.	c #D91F06",
"U.	c #D52001",
"V.	c #DF2107",
"W.	c #B21B06",
"X.	c #F4A143",
"Y.	c #FF3D1A",
"Z.	c #FF2D08",
"`.	c #FF300E",
" +	c #F93D0F",
".+	c #FF3910",
"++	c #FC3C0F",
"@+	c #FF3D1E",
"#+	c #FF4714",
"$+	c #F83B15",
"%+	c #F33A1C",
"&+	c #E74A1D",
"*+	c #4D170D",
"=+	c #D5542D",
"-+	c #F04B15",
";+	c #FE4411",
">+	c #F53713",
",+	c #EC2508",
"'+	c #E92309",
")+	c #DF260A",
"!+	c #DD2906",
"~+	c #DF2109",
"{+	c #D52307",
"]+	c #C32000",
"^+	c #CC1902",
"/+	c #A01707",
"(+	c #FF8B34",
"_+	c #F23205",
":+	c #FB3312",
"<+	c #EE310B",
"[+	c #F9350B",
"}+	c #FD360C",
"|+	c #FF3815",
"1+	c #F63F06",
"2+	c #FF3D13",
"3+	c #B1301A",
"4+	c #5E1600",
"5+	c #C5452A",
"6+	c #E18E5C",
"7+	c #DB5637",
"8+	c #67240A",
"9+	c #9F2E0E",
"0+	c #FF340F",
"a+	c #ED2003",
"b+	c #E02409",
"c+	c #E32105",
"d+	c #D1210A",
"e+	c #CE2506",
"f+	c #CB1800",
"g+	c #CA1C04",
"h+	c #CE1803",
"i+	c #A11305",
"j+	c #FF7E2C",
"k+	c #F73208",
"l+	c #F8260B",
"m+	c #F62B0B",
"n+	c #FE2E0A",
"o+	c #FF3508",
"p+	c #FF350A",
"q+	c #FA3910",
"r+	c #F73C0F",
"s+	c #FB663B",
"t+	c #9B4B30",
"u+	c #601A0E",
"v+	c #C04935",
"w+	c #602709",
"x+	c #7F4426",
"y+	c #F27350",
"z+	c #FD3816",
"A+	c #EE2C10",
"B+	c #D82705",
"C+	c #D92202",
"D+	c #D9200E",
"E+	c #BD2108",
"F+	c #C41400",
"G+	c #CE1F0E",
"H+	c #C21801",
"I+	c #9D1C06",
"J+	c #F97824",
"K+	c #FA410B",
"L+	c #F83309",
"M+	c #FA350A",
"N+	c #FF3507",
"O+	c #FC300B",
"P+	c #F74007",
"Q+	c #F93F16",
"R+	c #FF4822",
"S+	c #FC4013",
"T+	c #FF7958",
"U+	c #8A523B",
"V+	c #581E08",
"W+	c #834828",
"X+	c #F7885D",
"Y+	c #F4481A",
"Z+	c #FF3812",
"`+	c #EF2D0A",
" @	c #DC2700",
".@	c #DC2503",
"+@	c #D41304",
"@@	c #CC1809",
"#@	c #C41600",
"$@	c #CF200B",
"%@	c #D31D08",
"&@	c #A71C09",
"*@	c #FB6B25",
"=@	c #FA4113",
"-@	c #FC3812",
";@	c #F72D09",
">@	c #F62A05",
",@	c #FF350F",
"'@	c #FF4216",
")@	c #FF4718",
"!@	c #FF4712",
"~@	c #FF4D16",
"{@	c #F94E16",
"]@	c #FF8955",
"^@	c #F19F77",
"/@	c #FF8866",
"(@	c #F75222",
"_@	c #FF4519",
":@	c #FE3B1B",
"<@	c #EB2D0B",
"[@	c #E82C09",
"}@	c #D41906",
"|@	c #D21A10",
"1@	c #CA1710",
"2@	c #BC1D08",
"3@	c #BC1B00",
"4@	c #DA2206",
"5@	c #B21800",
"6@	c #F35621",
"7@	c #F34218",
"8@	c #F13E15",
"9@	c #F43711",
"0@	c #F23610",
"a@	c #F53003",
"b@	c #F6391B",
"c@	c #EB3F0F",
"d@	c #F04807",
"e@	c #FE531B",
"f@	c #F25417",
"g@	c #F55F20",
"h@	c #F45828",
"i@	c #F0551F",
"j@	c #F9591D",
"k@	c #EF4418",
"l@	c #ED3F1D",
"m@	c #E13608",
"n@	c #DF2D07",
"o@	c #D9250E",
"p@	c #CB2205",
"q@	c #C51D03",
"r@	c #C21902",
"s@	c #CE2005",
"t@	c #CF2106",
"u@	c #AB1B00",
"v@	c #210F0D",
"w@	c #1E0B07",
"x@	c #160500",
"y@	c #240604",
"z@	c #1D0805",
"A@	c #240709",
"B@	c #0F0A04",
"C@	c #131009",
"D@	c #150B09",
"E@	c #1D060C",
"F@	c #1D0807",
"G@	c #120900",
"H@	c #1E080A",
"I@	c #1B0800",
"J@	c #1A1102",
"K@	c #190409",
"L@	c #24050D",
"M@	c #200C01",
"N@	c #1A0700",
"O@	c #1C0205",
"P@	c #190800",
"Q@	c #1A0202",
"R@	c #1C070E",
"S@	c #160704",
"T@	c #180D09",
"U@	c #120F08",
"V@	c #4E4F55",
"W@	c #505257",
"X@	c #52545A",
"Y@	c #54575C",
"Z@	c #56595F",
"`@	c #595C61",
" #	c #5B5F64",
".#	c #5D6167",
"+#	c #606469",
"@#	c #62656C",
"##	c #64686E",
"$#	c #666A70",
"%#	c #686D72",
"&#	c #6B6F75",
"*#	c #6D7177",
"=#	c #6E7479",
"-#	c #70757C",
";#	c #72787E",
">#	c #73797F",
",#	c #767C81",
"'#	c #777D83",
")#	c #797F84",
"!#	c #7A8086",
"~#	c #7B8288",
"{#	c #7C8389",
"]#	c #7D848A",
"^#	c #2A2C29",
"/#	c #1C1C1C",
"(#	c #242424",
"_#	c #1D1D1D",
":#	c #1B1B1B",
"<#	c #1E1E1E",
"[#	c #1A1A1A",
"}#	c #191919",
"|#	c #1F1F1F",
"1#	c #202020",
"2#	c #161616",
"3#	c #171717",
"4#	c #181818",
"  . + @ # $ % & * = - ; > , ' ) ! ~ { ] ] ^ / ( _ : ",
"< [ } | 1 2 3 4 5 6 7 8 9 0 a b c d e f g h i j k l ",
"m n o p q r s t u v w x y z A B C D E F G H I J K L ",
"M N O P Q R S T U V W X Y Z `  ...+.@.#.$.%.&.*.=.-.",
";.>.,.'.).!.~.{.].^./.(._.:.<.[.}.|.1.{.2.3.4.5.6.7.",
"8.9.0.a.b.c.d.e.f.g.h.i.j.k.l.m.n.o.p.q.r.s.t.u.v.w.",
"x.y.z.A.B.C.D.E.F.G.H.I.J.K.L.M.N.O.P.Q.R.S.T.U.V.W.",
"X.Y.Z.`. +.+++@+#+$+%+&+*+=+-+;+>+,+'+)+!+~+{+]+^+/+",
"(+_+:+<+[+}+|+1+2+3+4+5+6+7+8+9+0+a+b+c+d+e+f+g+h+i+",
"j+k+l+m+n+o+p+q+r+s+t+u+v+w+x+y+z+A+B+C+D+E+F+G+H+I+",
"J+K+L+M+N+O+P+Q+R+S+T+U+V+W+X+Y+Z+`+ @.@+@@@#@$@%@&@",
"*@=@-@;@>@,@'@)@!@~@{@]@^@/@(@_@:@<@[@}@|@1@2@3@4@5@",
"6@7@8@9@0@a@b@c@d@e@f@g@h@i@j@k@l@m@n@o@p@q@r@s@t@u@",
"v@w@x@y@z@A@B@C@D@E@F@G@H@I@J@K@L@M@N@O@P@Q@R@S@T@U@",
"V@W@X@Y@Z@`@ #.#+#@###$#%#&#*#=#-#;#>#,#'#)#!#~#{#]#",
"^#^#^#^#^#^#^#^#^#^#^#^#^#^#^#^#^#^#^#^#^#^#^#^#^#^#",
"/#/#/#/#/#/#/#/#/#/#/#/#/#/#/#/#/#/#/#/#/#/#/#/#/#(#",
"_#_#_#_#_#_#_#_#_#_#_#_#_#_#_#_#_#_#_#_#_#_#_#_#_#_#",
":#:#:#:#:#:#:#:#:#:#:#:#:#:#:#/#_#_#<#<#<#<#<#<#_#_#",
":#:#[#[#[#[#}#}#}#[#[#:#/#:#:#/#_#<#|#1#|#|#|#|#|#<#",
"2#2#2#2#2#3#3#3#3#4#}#[#:#_#_#_#_#_#_#_#_#_#_#_#_#_#",
"4#4#}#}#}#_#_#_#<#1#1#1#1#1#1#1#1#1#1#1#1#1#1#1#1#1#",
"|#|#|#|#1#|#|#|#|#|#|#|#|#|#|#|#|#|#|#|#|#|#|#|#|#|#",
"4#4#4#4#4#4#4#4#4#4#4#4#4#4#4#4#4#4#4#4#4#4#4#4#4#4#"};
