/* XPM */
static char * maximize_inactive_xpm[] = {
"26 24 345 2",
"  	c #A49E9B",
". 	c #A28569",
"+ 	c #A28470",
"@ 	c #A1846F",
"# 	c #9F8470",
"$ 	c #A38A78",
"% 	c #A38574",
"& 	c #A28777",
"* 	c #A48778",
"= 	c #A38978",
"- 	c #A48B7B",
"; 	c #A38B7F",
"> 	c #A48D82",
", 	c #A49082",
"' 	c #A19284",
") 	c #A49384",
"! 	c #A49381",
"~ 	c #A2917F",
"{ 	c #A2927F",
"] 	c #A38F7A",
"^ 	c #A38F79",
"/ 	c #A48F78",
"( 	c #A08B77",
"_ 	c #A38570",
": 	c #9F826C",
"< 	c #865238",
"[ 	c #898A86",
"} 	c #8D775D",
"| 	c #8D7964",
"1 	c #8D7C64",
"2 	c #8D866C",
"3 	c #867E6A",
"4 	c #8B8278",
"5 	c #8B837A",
"6 	c #8B847D",
"7 	c #8B867F",
"8 	c #8B8982",
"9 	c #8C8A85",
"0 	c #8D8D87",
"a 	c #8D8D89",
"b 	c #8D8884",
"c 	c #8D8983",
"d 	c #8D8A83",
"e 	c #8D897F",
"f 	c #8C887C",
"g 	c #8C877A",
"h 	c #8B8678",
"i 	c #8B8376",
"j 	c #8C806C",
"k 	c #8D7F6A",
"l 	c #8D7259",
"m 	c #6C4525",
"n 	c #8D7F64",
"o 	c #893611",
"p 	c #863210",
"q 	c #892C0F",
"r 	c #8A2E12",
"s 	c #8D3216",
"t 	c #8B3B12",
"u 	c #8C3C14",
"v 	c #8C3E15",
"w 	c #8B3E17",
"x 	c #8B3F17",
"y 	c #8B401A",
"z 	c #8C431C",
"A 	c #8D451F",
"B 	c #8B4A1F",
"C 	c #8B4D21",
"D 	c #8C5021",
"E 	c #8A5121",
"F 	c #8B5221",
"G 	c #8C5321",
"H 	c #8D521F",
"I 	c #8B4F1C",
"J 	c #84491F",
"K 	c #893C17",
"L 	c #873F1B",
"M 	c #711000",
"N 	c #8D7C5A",
"O 	c #8D3313",
"P 	c #882D0A",
"Q 	c #8D3117",
"R 	c #8D2E12",
"S 	c #8D3914",
"T 	c #8D3C17",
"U 	c #8D3E18",
"V 	c #8D3E19",
"W 	c #8D3F19",
"X 	c #8D421C",
"Y 	c #8D431E",
"Z 	c #8A4319",
"` 	c #8B471D",
" .	c #8C4C21",
"..	c #894F20",
"+.	c #8B5222",
"@.	c #8D5324",
"#.	c #8D5021",
"$.	c #8D4A1E",
"%.	c #8A3E14",
"&.	c #8D3A1A",
"*.	c #6C1500",
"=.	c #86784B",
"-.	c #8D3615",
";.	c #89320C",
">.	c #8D3316",
",.	c #8C3212",
"'.	c #8B360A",
").	c #893C14",
"!.	c #8B3E15",
"~.	c #8B3E16",
"{.	c #893E14",
"].	c #8C4017",
"^.	c #8D4218",
"/.	c #8D4319",
"(.	c #8D471C",
"_.	c #8D4C1F",
":.	c #8D4D1F",
"<.	c #8B5020",
"[.	c #8A491C",
"}.	c #8C4819",
"|.	c #8D471A",
"1.	c #8D3616",
"2.	c #671700",
"3.	c #8C772C",
"4.	c #893905",
"5.	c #8D3D07",
"6.	c #8D3C0A",
"7.	c #8D3A09",
"8.	c #8B3702",
"9.	c #893F07",
"0.	c #8C450A",
"a.	c #8D480D",
"b.	c #8C480C",
"c.	c #8B460A",
"d.	c #8B470A",
"e.	c #8A4C0D",
"f.	c #88500E",
"g.	c #8D500E",
"h.	c #8D5311",
"i.	c #8D5512",
"j.	c #8C5512",
"k.	c #8D5412",
"l.	c #8C5311",
"m.	c #8D4D14",
"n.	c #8B4C17",
"o.	c #87490C",
"p.	c #672707",
"q.	c #8D5112",
"r.	c #881400",
"s.	c #8D1600",
"t.	c #8B1600",
"u.	c #8D1400",
"v.	c #8A1000",
"w.	c #8B1000",
"x.	c #8C1500",
"y.	c #8D1900",
"z.	c #8C1900",
"A.	c #8D1800",
"B.	c #8D1A00",
"C.	c #8D2000",
"D.	c #8C2500",
"E.	c #8B2900",
"F.	c #8C2C00",
"G.	c #8C2E00",
"H.	c #8B3000",
"I.	c #8A2E00",
"J.	c #8B3300",
"K.	c #8B3400",
"L.	c #8A3500",
"M.	c #691400",
"N.	c #8D4B0C",
"O.	c #8D1200",
"P.	c #8C1200",
"Q.	c #8B0F00",
"R.	c #8B0D00",
"S.	c #8D1700",
"T.	c #8D1500",
"U.	c #8D1E00",
"V.	c #8D2300",
"W.	c #892600",
"X.	c #8B2F00",
"Y.	c #893400",
"Z.	c #8B3800",
"`.	c #8A3B00",
" +	c #661900",
".+	c #8D4203",
"++	c #870E00",
"@+	c #8A0E00",
"#+	c #891200",
"$+	c #8C1600",
"%+	c #8C1A00",
"&+	c #8D1B00",
"*+	c #8B1C00",
"=+	c #8A2000",
"-+	c #872400",
";+	c #892A00",
">+	c #892E00",
",+	c #893100",
"'+	c #893200",
")+	c #893300",
"!+	c #8B3B00",
"~+	c #611900",
"{+	c #8D3500",
"]+	c #890A00",
"^+	c #8A0A00",
"/+	c #8B0C00",
"(+	c #8D0F00",
"_+	c #8D0D00",
":+	c #8D0E00",
"<+	c #8D1300",
"[+	c #8C2200",
"}+	c #8C2700",
"|+	c #8C2900",
"1+	c #8A3300",
"2+	c #8C3100",
"3+	c #8D3601",
"4+	c #8D3800",
"5+	c #611600",
"6+	c #8C2800",
"7+	c #8A0500",
"8+	c #890500",
"9+	c #8A0700",
"0+	c #8B0900",
"a+	c #8C0A00",
"b+	c #8C0F00",
"c+	c #8A1200",
"d+	c #891400",
"e+	c #871400",
"f+	c #8A1800",
"g+	c #8B2400",
"h+	c #8B2600",
"i+	c #8A2A00",
"j+	c #8A3400",
"k+	c #863100",
"l+	c #863300",
"m+	c #863700",
"n+	c #581700",
"o+	c #8D1C00",
"p+	c #8D0100",
"q+	c #8D0000",
"r+	c #8D0200",
"s+	c #8B0300",
"t+	c #8D0500",
"u+	c #8C0E00",
"v+	c #8B1200",
"w+	c #891300",
"x+	c #8A1F00",
"y+	c #892400",
"z+	c #8C1F00",
"A+	c #8B2000",
"B+	c #8B2800",
"C+	c #892C00",
"D+	c #882D00",
"E+	c #882F00",
"F+	c #8A3100",
"G+	c #863200",
"H+	c #873500",
"I+	c #591600",
"J+	c #851500",
"K+	c #890000",
"L+	c #860000",
"M+	c #840000",
"N+	c #890200",
"O+	c #880800",
"P+	c #8A0C00",
"Q+	c #891000",
"R+	c #881100",
"S+	c #861800",
"T+	c #821B00",
"U+	c #821900",
"V+	c #811B00",
"W+	c #801F00",
"X+	c #802400",
"Y+	c #7F2700",
"Z+	c #7E2A00",
"`+	c #802D00",
" @	c #833000",
".@	c #843100",
"+@	c #7F2D00",
"@@	c #7E2F00",
"#@	c #4F1100",
"$@	c #0D0605",
"%@	c #0C0403",
"&@	c #090200",
"*@	c #0E0202",
"=@	c #0C0302",
"-@	c #0E0304",
";@	c #060402",
">@	c #080604",
",@	c #080404",
"'@	c #0C0205",
")@	c #0C0303",
"!@	c #070400",
"~@	c #0C0304",
"{@	c #0B0300",
"]@	c #0A0701",
"^@	c #0A0204",
"/@	c #0E0205",
"(@	c #0D0500",
"_@	c #0A0300",
":@	c #0B0102",
"<@	c #0A0101",
"[@	c #0B0306",
"}@	c #090302",
"|@	c #0A0504",
"1@	c #070603",
"2@	c #4E4F55",
"3@	c #505257",
"4@	c #52545A",
"5@	c #54575C",
"6@	c #56595F",
"7@	c #595C61",
"8@	c #5B5F64",
"9@	c #5D6167",
"0@	c #606469",
"a@	c #62656C",
"b@	c #64686E",
"c@	c #666A70",
"d@	c #686D72",
"e@	c #6B6F75",
"f@	c #6D7177",
"g@	c #6E7479",
"h@	c #70757C",
"i@	c #72787E",
"j@	c #73797F",
"k@	c #767C81",
"l@	c #777D83",
"m@	c #797F84",
"n@	c #7A8086",
"o@	c #7B8288",
"p@	c #7C8389",
"q@	c #7D848A",
"r@	c #2A2C29",
"s@	c #1C1C1C",
"t@	c #242424",
"u@	c #1D1D1D",
"v@	c #1B1B1B",
"w@	c #1E1E1E",
"x@	c #1A1A1A",
"y@	c #191919",
"z@	c #1F1F1F",
"A@	c #202020",
"B@	c #161616",
"C@	c #171717",
"D@	c #181818",
"  . + @ # $ % & * = - ; > , ' ) ! ~ { ] ^ / ( _ : < ",
"[ } | 1 2 3 4 5 6 7 8 9 0 a b c d e f g h i j k l m ",
"n o p q r s t u v w x y z A B C D E F G H I J K L M ",
"N O P Q R S T U V W U W X Y Z `  ...+.@.@.#.$.%.&.*.",
"=.-.;.>.,.'.).!.~.!.{.%.].^./.(._.:.<.#.:.[.}.|.1.2.",
"3.4.5.6.7.8.9.0.a.b.c.d.e.f.g.h.i.i.j.j.k.l.m.n.o.p.",
"q.r.s.t.u.v.w.x.y.z.A.B.C.D.E.F.G.H.H.H.H.I.J.K.L.M.",
"N.v.O.P.O.Q.R.O.S.s.T.A.U.V.W.E.F.G.H.H.H.X.Y.Z.`. +",
".+++@+#+O.w.v.$+%+&+z.*+=+-+W.;+>+,+'+)+)+)+Y.Z.!+~+",
"{+]+^+/+(+_+:+<+S.s.s.y.U.[+}+|+F.H.J.1+1+J.2+3+4+5+",
"6+7+8+9+0+a+b+c+d+e+e+f+=+W.g+h+i+I.,+,+)+j+k+l+m+n+",
"o+p+q+r+s+t+u+v+d+w+w+f+x+y+z+A+g+B+C+D+E+F+'+G+H+I+",
"J+K+L+L+M+N+O+P+Q+R+R+e+S+T+U+V+W+X+Y+Z+`+ @.@+@@@#@",
"$@%@&@*@=@-@;@>@,@'@)@!@~@{@]@^@/@(@_@:@_@<@[@}@|@1@",
"2@3@4@5@6@7@8@9@0@a@b@c@d@e@f@g@h@i@j@k@l@m@n@o@p@q@",
"r@r@r@r@r@r@r@r@r@r@r@r@r@r@r@r@r@r@r@r@r@r@r@r@r@r@",
"s@s@s@s@s@s@s@s@s@s@s@s@s@s@s@s@s@s@s@s@s@s@s@s@s@t@",
"u@u@u@u@u@u@u@u@u@u@u@u@u@u@u@u@u@u@u@u@u@u@u@u@u@u@",
"v@v@v@v@v@v@v@v@v@v@v@v@v@v@v@s@u@u@w@w@w@w@w@w@u@u@",
"v@v@x@x@x@x@y@y@y@x@x@v@s@v@v@s@u@w@z@A@z@z@z@z@z@w@",
"B@B@B@B@B@C@C@C@C@D@y@x@v@u@u@u@u@u@u@u@u@u@u@u@u@u@",
"D@D@y@y@y@u@u@u@w@A@A@A@A@A@A@A@A@A@A@A@A@A@A@A@A@A@",
"z@z@z@z@A@z@z@z@z@z@z@z@z@z@z@z@z@z@z@z@z@z@z@z@z@z@",
"D@D@D@D@D@D@D@D@D@D@D@D@D@D@D@D@D@D@D@D@D@D@D@D@D@D@"};
